<svg xmlns="http://www.w3.org/2000/svg" xmlns:xlink="http://www.w3.org/1999/xlink" width="589" height="612" viewBox="0 0 589 612">
  <metadata><?xpacket begin="﻿" id="W5M0MpCehiHzreSzNTczkc9d"?>
<x:xmpmeta xmlns:x="adobe:ns:meta/" x:xmptk="Adobe XMP Core 5.6-c138 79.159824, 2016/09/14-01:09:01        ">
   <rdf:RDF xmlns:rdf="http://www.w3.org/1999/02/22-rdf-syntax-ns#">
      <rdf:Description rdf:about=""/>
   </rdf:RDF>
</x:xmpmeta>
                                                                                                    
                                                                                                    
                                                                                                    
                                                                                                    
                                                                                                    
                                                                                                    
                                                                                                    
                                                                                                    
                                                                                                    
                                                                                                    
                                                                                                    
                                                                                                    
                                                                                                    
                                                                                                    
                                                                                                    
                                                                                                    
                                                                                                    
                                                                                                    
                                                                                                    
                                                                                                    
                           
<?xpacket end="w"?></metadata>
<defs>
    <style>
      .cls-1 {
        fill: #448ccb;
      }

      .cls-2 {
        fill-rule: evenodd;
        filter: url(#filter);
      }
    </style>
    <filter id="filter" x="125" y="136" width="340" height="340" filterUnits="userSpaceOnUse">
      <feFlood result="flood" flood-color="#fff"/>
      <feComposite result="composite" operator="in" in2="SourceGraphic"/>
      <feBlend result="blend" in2="SourceGraphic"/>
    </filter>
  </defs>
  <circle class="cls-1" cx="295" cy="306" r="281"/>
  <path id="Forma_1" data-name="Forma 1" class="cls-2" d="M201.262,154.97c17.578,0,31.828,13.727,31.828,30.661s-14.25,30.661-31.828,30.661-31.828-13.728-31.828-30.661S183.684,154.97,201.262,154.97Zm152.7,3.532c17.578,0,31.827,13.727,31.827,30.661s-14.249,30.661-31.827,30.661-31.829-13.728-31.829-30.661S336.384,158.5,353.963,158.5ZM139.149,347.615c-0.338,0,.343.023,0,0h0ZM438.037,310.31c-0.625,0-1.243.028-1.858,0.069L413.471,222.4c-1.964-7.555-8.732-10.668-18.089-10.668-0.331,0-2.032.058-4.828,0.114a44.4,44.4,0,0,1-73.14.069c-7.5-.087-12.63-0.05-13.4-0.05-9.012,0-15.7,3.942-17.429,11.55l-9.15,39.214-8.971-46.136a14.513,14.513,0,0,0-14.877-11.482H238.538a43.135,43.135,0,0,1-74.458.169c-7.73-.011-13.668-0.055-15.232-0.16-8.073-.516-15.054,5.328-15.612,13.1l-8.2,114.442c-0.556,7.769,6.028,14.787,14.108,15.055,7.621,0.253,14.567-5.675,15.1-13.115l5.559-77.613L160.1,456.392a17.515,17.515,0,0,0,16.717,17.381c10.087,0.458,18.415-7.285,18.415-16.9V350.264a5.751,5.751,0,0,1,5.855-5.64h0a5.752,5.752,0,0,1,5.856,5.64V456.392a17.514,17.514,0,0,0,16.716,17.381c10.088,0.458,18.415-7.285,18.415-16.9l0.293-211.3h1.966l16.949,78.822c3.58,16.651,28.216,16.791,32,.182l16.458-72.231v33.6l-10.071,72.441a9.969,9.969,0,0,0,2.523,8.1,10.781,10.781,0,0,0,7.842,3.491v88.65a17.515,17.515,0,0,0,16.717,17.381c10.088,0.458,18.415-7.286,18.415-16.9V375.627a5.752,5.752,0,0,1,5.856-5.64h0a5.751,5.751,0,0,1,5.854,5.64v83A17.515,17.515,0,0,0,373.59,476.01c10.088,0.458,18.415-7.286,18.415-16.9V369.981a10.781,10.781,0,0,0,7.843-3.491,9.971,9.971,0,0,0,2.522-8.1L392.3,285.946V257.685l16.734,64.376a13.89,13.89,0,0,0,3.405,6.1,24.987,24.987,0,0,0-1.359,8.124V467.223a8.7,8.7,0,0,0,8.376,8.67,8.5,8.5,0,0,0,8.907-8.32V336.278a9.028,9.028,0,0,1,1.611-5.14,14.457,14.457,0,0,0,4.529-3.527,9.912,9.912,0,0,1,5.572-.443,9.616,9.616,0,0,1,7.638,9.4v10.5a8.7,8.7,0,0,0,8.376,8.669,8.5,8.5,0,0,0,8.907-8.32V336.278C465,321.959,452.9,310.31,438.037,310.31ZM353.963,136c9.685,0,17.536,6.887,17.536,15.382s-7.851,15.381-17.536,15.381-17.538-6.886-17.538-15.381S344.277,136,353.963,136Z"/>
</svg>
